{"title":"Evil Dead 3, Army of Darkness 1992 DVDrip English Klam","uid":6482016,"size":1577214377,"categoryP":"video","categoryS":"movies","magnet":"?xt=urn:btih:6a5a5fd2853e787388ef88049840acd8d5ff6561&amp;dn=Evil+Dead+3%2C+Army+of+Darkness+1992+DVDrip+English+Klam&amp;tr=udp%3A%2F%2Ftracker.openbittorrent.com%3A80&amp;tr=udp%3A%2F%2Fopen.demonii.com%3A1337&amp;tr=udp%3A%2F%2Ftracker.coppersurfer.tk%3A6969&amp;tr=udp%3A%2F%2Fexodus.desync.com%3A6969","seeders":17,"leechers":3,"uploader":"Klambake","files":-1,"time":1308563432,"description":"With: Bruce Campbell, Embeth Davidtz and Marcus Gilbert\n\nAsh (Campbell) is in de 13e eeuw terecht gekomen en heeft het duistere boek De Necronomicon nodig om weer terug naar zijn tijd te komen. Helaas maakt hij een foutje bij het uitspreken van een vers uit het boek, waardoor hij een dodenleger oproept. Nu moet hij zijn 20e eeuwse kennis gebruiken om het boek terug te krijgen, het leger te verslaan en natuurlijk ook een mooie vrouw te redden.\n\nA man is accidentally transported to 1300 A.D., where he must battle an army of the dead and retrieve the Necronomicon so he can return home. \n\n------------------ Dutch Friends ------------------\n\nYou can find my Friends at: http://www.Film-Test.nl \n                    \n------ They got my dutchs subs ---- and more ------\n\nGeneral:\n\nComplete name                    : Evil Dead 3\\Army of Darkness.avi\nFormat                           : AVI\nFormat/Info                      : Audio Video Interleave\nFile size                        : 1.47 GiB\nDuration                         : 1h 25mn\nOverall bit rate                 : 2 470 Kbps\n\nVideo:\n\nFormat                           : MPEG-4 Visual\nFormat profile                   : Simple@L3\nFormat settings, BVOP            : No\nFormat settings, QPel            : No\nFormat settings, GMC             : No warppoints\nFormat settings, Matrix          : Default (H.263)\nCodec ID                         : XVID\nCodec ID/Hint                    : XviD\nDuration                         : 1h 25mn\nBit rate                         : 2 011 Kbps\nWidth                            : 720 pixels\nHeight                           : 434 pixels\nDisplay aspect ratio             : 1.659\nFrame rate                       : 25.000 fps\nColor space                      : YUV\nChroma subsampling               : 4:2:0\nBit depth                        : 8 bits\nScan type                        : Progressive\nBits/(Pixel*Frame)               : 0.257\nStream size                      : 1.20 GiB (81%)\nWriting library                  : XviD 1.1.2 (UTC 2006-11-01)\n\nAudio:\n\nFormat                           : AC-3\nFormat/Info                      : Audio Coding 3\nMode extension                   : CM (complete main)\nCodec ID                         : 2000\nDuration                         : 1h 25mn\nBit rate mode                    : Constant\nBit rate                         : 448 Kbps\nChannel(s)                       : 6 channels\nChannel positions                : Front: L C R, Side: L R, LFE\nSampling rate                    : 48.0 KHz\nBit depth                        : 16 bits\nStream size                      : 273 MiB (18%)\nAlignment                        : Aligned on interleaves\nInterleave, duration             : 32 ms (0.80 video frame)\nInterleave, preload duration     : 160 ms\n\n\n\n","torrent":{"xt":"urn:btih:6a5a5fd2853e787388ef88049840acd8d5ff6561","amp;dn":"Evil+Dead+3%2C+Army+of+Darkness+1992+DVDrip+English+Klam","amp;tr":["udp%3A%2F%2Ftracker.openbittorrent.com%3A80","udp%3A%2F%2Fopen.demonii.com%3A1337","udp%3A%2F%2Ftracker.coppersurfer.tk%3A6969","udp%3A%2F%2Fexodus.desync.com%3A6969"],"infoHash":"6a5a5fd2853e787388ef88049840acd8d5ff6561","infoHashBuffer":{"type":"Buffer","data":[106,90,95,210,133,62,120,115,136,239,136,4,152,64,172,216,213,255,101,97]},"announce":[],"urlList":[]}}